<svg width="25" height="24" viewBox="0 0 25 24" fill="none" xmlns="http://www.w3.org/2000/svg">
<path d="M5.75 4C5.06 4 4.5 4.56 4.5 5.25V8C4.5 8.26522 4.39464 8.51957 4.20711 8.70711C4.01957 8.89464 3.76522 9 3.5 9C3.23478 9 2.98043 8.89464 2.79289 8.70711C2.60536 8.51957 2.5 8.26522 2.5 8V5.25C2.5 4.38805 2.84241 3.5614 3.4519 2.9519C4.0614 2.34241 4.88805 2 5.75 2H8.5C8.76522 2 9.01957 2.10536 9.20711 2.29289C9.39464 2.48043 9.5 2.73478 9.5 3C9.5 3.26522 9.39464 3.51957 9.20711 3.70711C9.01957 3.89464 8.76522 4 8.5 4H5.75ZM5.75 20C5.06 20 4.5 19.44 4.5 18.75V16C4.5 15.7348 4.39464 15.4804 4.20711 15.2929C4.01957 15.1054 3.76522 15 3.5 15C3.23478 15 2.98043 15.1054 2.79289 15.2929C2.60536 15.4804 2.5 15.7348 2.5 16V18.75C2.5 19.1768 2.58406 19.5994 2.74739 19.9937C2.91072 20.388 3.15011 20.7463 3.4519 21.0481C3.75369 21.3499 4.11197 21.5893 4.50628 21.7526C4.90059 21.9159 5.3232 22 5.75 22H8.5C8.76522 22 9.01957 21.8946 9.20711 21.7071C9.39464 21.5196 9.5 21.2652 9.5 21C9.5 20.7348 9.39464 20.4804 9.20711 20.2929C9.01957 20.1054 8.76522 20 8.5 20H5.75ZM20.5 5.25C20.5 4.56 19.94 4 19.25 4H16.5C16.2348 4 15.9804 3.89464 15.7929 3.70711C15.6054 3.51957 15.5 3.26522 15.5 3C15.5 2.73478 15.6054 2.48043 15.7929 2.29289C15.9804 2.10536 16.2348 2 16.5 2H19.25C19.6768 2 20.0994 2.08406 20.4937 2.24739C20.888 2.41072 21.2463 2.65011 21.5481 2.9519C21.8499 3.25369 22.0893 3.61197 22.2526 4.00628C22.4159 4.40059 22.5 4.8232 22.5 5.25V8C22.5 8.26522 22.3946 8.51957 22.2071 8.70711C22.0196 8.89464 21.7652 9 21.5 9C21.2348 9 20.9804 8.89464 20.7929 8.70711C20.6054 8.51957 20.5 8.26522 20.5 8V5.25ZM19.25 20C19.94 20 20.5 19.44 20.5 18.75V16C20.5 15.7348 20.6054 15.4804 20.7929 15.2929C20.9804 15.1054 21.2348 15 21.5 15C21.7652 15 22.0196 15.1054 22.2071 15.2929C22.3946 15.4804 22.5 15.7348 22.5 16V18.75C22.5 19.1768 22.4159 19.5994 22.2526 19.9937C22.0893 20.388 21.8499 20.7463 21.5481 21.0481C21.2463 21.3499 20.888 21.5893 20.4937 21.7526C20.0994 21.9159 19.6768 22 19.25 22H16.5C16.2348 22 15.9804 21.8946 15.7929 21.7071C15.6054 21.5196 15.5 21.2652 15.5 21C15.5 20.7348 15.6054 20.4804 15.7929 20.2929C15.9804 20.1054 16.2348 20 16.5 20H19.25ZM12.5 13C12.7652 13 13.0196 12.8946 13.2071 12.7071C13.3946 12.5196 13.5 12.2652 13.5 12C13.5 11.7348 13.3946 11.4804 13.2071 11.2929C13.0196 11.1054 12.7652 11 12.5 11C12.2348 11 11.9804 11.1054 11.7929 11.2929C11.6054 11.4804 11.5 11.7348 11.5 12C11.5 12.2652 11.6054 12.5196 11.7929 12.7071C11.9804 12.8946 12.2348 13 12.5 13ZM11.348 7C10.875 7 10.442 7.263 10.23 7.678L9.742 9H9.167C8.247 9 7.5 9.596 7.5 10.5V14.364C7.5 15.267 8.246 16 9.167 16H15.833C16.753 16 17.5 15.267 17.5 14.364V10.5C17.5 9.596 16.754 9 15.833 9H15.258L14.77 7.678C14.6644 7.4728 14.504 7.30083 14.3067 7.18117C14.1094 7.0615 13.8828 6.99879 13.652 7H11.348ZM12.5 14C11.9696 14 11.4609 13.7893 11.0858 13.4142C10.7107 13.0391 10.5 12.5304 10.5 12C10.5 11.4696 10.7107 10.9609 11.0858 10.5858C11.4609 10.2107 11.9696 10 12.5 10C13.0304 10 13.5391 10.2107 13.9142 10.5858C14.2893 10.9609 14.5 11.4696 14.5 12C14.5 12.5304 14.2893 13.0391 13.9142 13.4142C13.5391 13.7893 13.0304 14 12.5 14Z" fill="#CDCDCD"/>
</svg>
