<svg width="20" height="20" viewBox="0 0 20 20" fill="none" xmlns="http://www.w3.org/2000/svg">
<path d="M10.4281 2.21198C10.31 2.10704 10.1575 2.04907 9.99958 2.04907C9.84162 2.04907 9.68915 2.10704 9.57108 2.21198C8.95671 2.75639 8.46672 3.42666 8.13439 4.17725C7.80206 4.92784 7.63518 5.74117 7.64508 6.56198C7.64606 6.648 7.66922 6.73231 7.71231 6.80676C7.7554 6.88121 7.81698 6.94329 7.89108 6.98698C8.53909 7.37019 9.12484 7.85005 9.62808 8.40998C9.67496 8.46203 9.73226 8.50364 9.79626 8.53213C9.86026 8.56061 9.92953 8.57533 9.99958 8.57533C10.0696 8.57533 10.1389 8.56061 10.2029 8.53213C10.2669 8.50364 10.3242 8.46203 10.3711 8.40998C10.8745 7.85076 11.4602 7.37159 12.1081 6.98898C12.182 6.94516 12.2434 6.88303 12.2863 6.80859C12.3292 6.73415 12.3522 6.6499 12.3531 6.56398C12.3632 5.74308 12.1966 4.9296 11.8644 4.17884C11.5323 3.42807 11.0424 2.7576 10.4281 2.21298M3.01608 12.209C3.00826 12.1219 3.01777 12.034 3.04404 11.9506C3.07032 11.8672 3.11285 11.7897 3.16918 11.7228C3.22551 11.6559 3.29453 11.6008 3.37226 11.5606C3.44999 11.5205 3.53489 11.4962 3.62208 11.489C4.95348 11.3776 6.28615 11.6883 7.431 12.377C8.57585 13.0658 9.47472 14.0976 10.0001 15.326C10.5252 14.0975 11.4239 13.0657 12.5685 12.3767C13.7132 11.6878 15.0457 11.3769 16.3771 11.488C16.7431 11.518 17.0171 11.84 16.9831 12.208C16.8389 13.7907 16.1083 15.2623 14.9347 16.3339C13.7611 17.4056 12.2293 17.9998 10.6401 18H10.1751C10.1156 17.9995 10.0565 17.9914 9.99908 17.976C9.94135 17.9915 9.88186 17.9996 9.82208 18H9.35708C7.76801 17.9995 6.23648 17.4052 5.06311 16.3336C3.88974 15.262 3.15927 13.7905 3.01508 12.208M10.0001 10.826C9.47488 9.59736 8.57608 8.56536 7.43121 7.87644C6.28635 7.18751 4.95359 6.87665 3.62208 6.98798C3.53489 6.99515 3.44999 7.01951 3.37226 7.05964C3.29453 7.09977 3.22551 7.15489 3.16918 7.22182C3.11285 7.28874 3.07032 7.36616 3.04404 7.4496C3.01777 7.53304 3.00826 7.62085 3.01608 7.70798C3.09491 8.58536 3.35543 9.43673 3.78108 10.208C3.82402 10.2856 3.88685 10.3504 3.96312 10.3958C4.03939 10.4411 4.12635 10.4654 4.21508 10.466C5.2263 10.4748 6.22485 10.692 7.14843 11.1039C8.072 11.5158 8.90079 12.1136 9.58308 12.86C9.63543 12.9171 9.70035 12.9614 9.77272 12.9891C9.84509 13.0169 9.92293 13.0275 10.0001 13.02C10.0771 13.0273 10.1547 13.0167 10.2269 12.9889C10.2991 12.9611 10.3638 12.917 10.4161 12.86C11.0984 12.1136 11.9272 11.5158 12.8507 11.1039C13.7743 10.692 14.7729 10.4748 15.7841 10.466C15.8729 10.4653 15.9599 10.4409 16.0362 10.3954C16.1125 10.3498 16.1753 10.2848 16.2181 10.207C16.6436 9.43603 16.9041 8.58501 16.9831 7.70798C16.9909 7.62085 16.9814 7.53304 16.9551 7.4496C16.9288 7.36616 16.8863 7.28874 16.83 7.22182C16.7736 7.15489 16.7046 7.09977 16.6269 7.05964C16.5492 7.01951 16.4643 6.99515 16.3771 6.98798C15.0457 6.87687 13.7132 7.18783 12.5685 7.87675C11.4239 8.56566 10.5252 9.59754 10.0001 10.826Z" fill="#A8A8A8"/>
</svg>
