<svg width="16" height="17" viewBox="0 0 16 17" fill="none" xmlns="http://www.w3.org/2000/svg">
<path d="M10.875 3.48436C10.103 2.59276 9.23409 1.78989 8.28438 1.09061C8.2003 1.03171 8.10015 1.00012 7.9975 1.00012C7.89485 1.00012 7.7947 1.03171 7.71063 1.09061C6.76266 1.79019 5.89545 2.59304 5.125 3.48436C3.40688 5.45748 2.5 7.53748 2.5 9.49998C2.5 10.9587 3.07946 12.3576 4.11091 13.3891C5.14236 14.4205 6.54131 15 8 15C9.45869 15 10.8576 14.4205 11.8891 13.3891C12.9205 12.3576 13.5 10.9587 13.5 9.49998C13.5 7.53748 12.5931 5.45748 10.875 3.48436ZM11.4906 10.0837C11.361 10.8079 11.0126 11.475 10.4923 11.9952C9.972 12.5153 9.30484 12.8636 8.58062 12.9931C8.55395 12.9973 8.52701 12.9996 8.5 13C8.37458 12.9999 8.25375 12.9528 8.16148 12.8678C8.06921 12.7829 8.01223 12.6664 8.00185 12.5414C7.99146 12.4164 8.02843 12.2921 8.10542 12.193C8.18242 12.094 8.2938 12.0276 8.4175 12.0069C9.45312 11.8325 10.3319 10.9537 10.5075 9.91623C10.5297 9.78545 10.603 9.66884 10.7112 9.59207C10.8193 9.5153 10.9536 9.48464 11.0844 9.50686C11.2152 9.52907 11.3318 9.60233 11.4085 9.71051C11.4853 9.8187 11.516 9.95295 11.4937 10.0837H11.4906Z" fill="#A8A8A8"/>
</svg>
