<svg width="87" height="21" viewBox="0 0 87 21" fill="none" xmlns="http://www.w3.org/2000/svg">
<path d="M0.892 20.5979L1.228 1.1579H5.428L7.828 13.4219L10.396 1.1579H14.452L14.788 20.5979H11.908L11.596 7.4219L9.124 20.5979H6.652L4.06 7.3259L3.796 20.5979H0.892ZM16.6915 20.5979V1.1579H25.1635V3.8939H20.6515V9.0539H24.1315V11.8139H20.6515V17.9099H25.2115V20.5979H16.6915ZM26.2549 20.5979V1.1579H29.0149L33.3349 11.2859V1.1579H36.5989V20.5979H33.9589L29.6389 9.8459V20.5979H26.2549ZM43.624 20.8619C42.424 20.8619 41.424 20.6459 40.624 20.2139C39.824 19.7659 39.216 19.1019 38.8 18.2219C38.4 17.3259 38.168 16.1899 38.104 14.8139L41.512 14.2379C41.544 15.0379 41.624 15.7099 41.752 16.2539C41.896 16.7819 42.104 17.1819 42.376 17.4539C42.664 17.7099 43.016 17.8379 43.432 17.8379C43.944 17.8379 44.288 17.6779 44.464 17.3579C44.656 17.0379 44.752 16.6699 44.752 16.2539C44.752 15.4379 44.552 14.7579 44.152 14.2139C43.768 13.6539 43.256 13.0939 42.616 12.5339L40.6 10.7819C39.88 10.1739 39.288 9.4859 38.824 8.7179C38.376 7.9499 38.152 7.0059 38.152 5.8859C38.152 4.2859 38.616 3.0619 39.544 2.2139C40.488 1.3499 41.776 0.917899 43.408 0.917899C44.384 0.917899 45.184 1.0779 45.808 1.3979C46.432 1.7179 46.912 2.1499 47.248 2.6939C47.6 3.2219 47.84 3.8059 47.968 4.4459C48.112 5.0699 48.2 5.6939 48.232 6.3179L44.848 6.8219C44.816 6.2299 44.76 5.7099 44.68 5.2619C44.616 4.8139 44.472 4.4619 44.248 4.2059C44.04 3.9499 43.72 3.8219 43.288 3.8219C42.824 3.8219 42.48 3.9979 42.256 4.3499C42.032 4.6859 41.92 5.0619 41.92 5.4779C41.92 6.1659 42.072 6.7339 42.376 7.1819C42.696 7.6139 43.128 8.0699 43.672 8.5499L45.64 10.2779C46.456 10.9819 47.152 11.7899 47.728 12.7019C48.32 13.5979 48.616 14.7099 48.616 16.0379C48.616 16.9499 48.408 17.7739 47.992 18.5099C47.576 19.2459 46.992 19.8219 46.24 20.2379C45.504 20.6539 44.632 20.8619 43.624 20.8619ZM55.2132 20.8619C53.7412 20.8619 52.5972 20.6139 51.7812 20.1179C50.9652 19.6059 50.3892 18.8779 50.0532 17.9339C49.7332 16.9739 49.5732 15.8139 49.5732 14.4539V1.1579H53.4852V15.0059C53.4852 15.4859 53.5172 15.9579 53.5812 16.4219C53.6612 16.8859 53.8212 17.2619 54.0612 17.5499C54.3172 17.8379 54.7012 17.9819 55.2132 17.9819C55.7412 17.9819 56.1252 17.8379 56.3652 17.5499C56.6212 17.2619 56.7812 16.8859 56.8452 16.4219C56.9092 15.9579 56.9412 15.4859 56.9412 15.0059V1.1579H60.8532V14.4539C60.8532 15.8139 60.6852 16.9739 60.3492 17.9339C60.0292 18.8779 59.4612 19.6059 58.6452 20.1179C57.8292 20.6139 56.6852 20.8619 55.2132 20.8619ZM62.6562 20.5979V1.1579H67.6962C69.0082 1.1579 70.1282 1.3099 71.0562 1.6139C72.0002 1.9019 72.7202 2.4219 73.2162 3.1739C73.7282 3.9259 73.9842 4.9659 73.9842 6.2939C73.9842 7.0939 73.9122 7.8059 73.7682 8.4299C73.6402 9.0379 73.4002 9.5739 73.0482 10.0379C72.7122 10.4859 72.2322 10.8459 71.6082 11.1179L74.2962 20.5979H70.2402L68.0082 11.7899H66.6162V20.5979H62.6562ZM66.6162 9.4379H67.7682C68.4082 9.4379 68.9122 9.3339 69.2802 9.1259C69.6482 8.9179 69.9042 8.6059 70.0482 8.1899C70.2082 7.7579 70.2882 7.2299 70.2882 6.6059C70.2882 5.7099 70.1202 5.0299 69.7842 4.5659C69.4642 4.0859 68.8562 3.8459 67.9602 3.8459H66.6162V9.4379ZM74.7284 20.5979L78.4964 1.1579H82.8884L86.6324 20.5979H82.9604L82.2644 16.3259H79.1924L78.4484 20.5979H74.7284ZM79.5524 13.9019H81.8804L80.7044 6.0539L79.5524 13.9019Z" fill="black"/>
</svg>
