<svg width="390" height="477" viewBox="0 0 390 477" fill="none" xmlns="http://www.w3.org/2000/svg">
<path d="M23 136.222V98.1111C23 88.0034 27.0153 78.3097 34.1625 71.1625C41.3097 64.0153 51.0034 60 61.1111 60H99.2222M289.778 60H327.889C337.997 60 347.69 64.0153 354.838 71.1625C361.985 78.3097 366 88.0034 366 98.1111V136.222M366 326.778V364.889C366 374.997 361.985 384.69 354.838 391.838C347.69 398.985 337.997 403 327.889 403H289.778M99.2222 403H61.1111C51.0034 403 41.3097 398.985 34.1625 391.838C27.0153 384.69 23 374.997 23 364.889V326.778" stroke="#EBEBEB" stroke-width="6" stroke-linecap="round" stroke-linejoin="round"/>
</svg>
