<svg width="321" height="49" viewBox="0 0 321 49" fill="none" xmlns="http://www.w3.org/2000/svg">
<path d="M3.56155 13.1633L0 12.1605V48.5361H320.54V14.7252L316.978 13.0447C313.416 11.3642 306.293 8.00313 299.17 10.5848C292.047 13.1665 284.924 21.691 277.801 18.7124C270.678 15.7339 263.555 1.25222 256.432 1.27002C249.309 1.28782 242.185 15.8051 235.062 19.6315C227.939 23.458 220.816 16.5937 213.693 15.8145C206.57 15.0354 199.447 20.3415 192.324 19.0637C185.201 17.7859 178.078 9.92415 170.954 5.01876C163.831 0.113362 156.708 -1.83568 149.585 2.10052C142.462 6.03672 135.339 15.8582 128.216 20.6228C121.093 25.3875 113.97 25.0954 106.847 22.377C99.7234 19.6586 92.6003 14.514 85.4772 16.6049C78.3541 18.6958 71.231 28.0222 64.1079 28.196C56.9848 28.3698 49.8617 19.391 42.7386 16.1957C35.6155 13.0005 28.4924 15.5889 21.3693 15.8803C14.2462 16.1717 7.1231 14.1661 3.56155 13.1633Z" fill="url(#paint0_linear_53_1597)"/>
<defs>
<linearGradient id="paint0_linear_53_1597" x1="160.27" y1="-0.0444393" x2="160.27" y2="39.312" gradientUnits="userSpaceOnUse">
<stop stop-color="#727272"/>
<stop offset="1" stop-color="white" stop-opacity="0"/>
</linearGradient>
</defs>
</svg>
